<svg xmlns="http://www.w3.org/2000/svg" width="1000" height="190.968" viewBox="-657.44 157.955 1000 190.968"><g fill="#fff"><path d="M-657.44 341.193h1000v7.73h-1000m373.62-70.09c12.227-.205 21.967-.355 32.56-.55 9.137.194 24.593.513 44.15.55.305-.72 1.712 1.11 2.21-2.21.44-7.453 1.974-14.073 2.76-22.625.19-1.646-3.26-4.52-3.313 0-3.59 18.46-15.27 20.28-36.425 20.42-16.18-.142-17.696-1.503-17.66-14.348V225.3c7.55-.093 14.94-.093 16.005 0 13.2-.093 17.438.033 18.212 8.278.664 3.54 4.4 2.102 4.414 0-.167-5.68-.014-8.068 0-12.14-.014-3.21-.167-5.285 0-11.038-.588-4.04-4.325-2.314-4.415-.553.482 8.676-6.226 10.886-21.523 11.04-2.914-.154-9.09-.306-12.693-.554v-43.047h12.14c23.403-.075 33.013 1.77 33.113 17.11.263 2.48 3.712 1.617 3.864 0 .137-8.15-.438-10.524-.55-17.11.11-1.152.182-4.44 0-5.52-18.486.626-35.25.776-44.15.554-9.16.222-17.052.073-27.595-.553-2.59-.186-3.74 4.7 0 4.967 7.356-.197 10.24 3.097 10.485 11.59v70.64c-.246 11.623-.877 16.38-11.038 16.557-2.9-.173-2.325 3.564-.55 3.314z"/><path d="M-143.83 174.663c-4.938-2.157-10.966-3.36-18.025-3.445-7.184.264-15.225 1.326-24.282 1.104-3.54.22-7.228.072-14.9-.554-1.485.39-2.636 4.7.55 4.967 7.622-.193 10.506 1.718 10.487 10.486v74.502c.02 11.358-.45 12.185-9.383 13.246-3.784.528-3.837 3.964 0 3.865 7.914-.054 11.07-.207 16.005 0 4.476-.207 9.315-.342 17.11 0 2.546-.04 4.275-3.56 0-3.865-10.39-.487-10.814-4.742-11.04-16.56v-29.8c7.208.34 14.773.49 16.005 1.105 1.955.906 3.624 5.358 6.622 10.486l13.796 22.622c7.638 12.77 16.546 17.474 29.802 17.664 2.834-.19 1.666-.344 4.967-.552 2.756-.095 1.894-3.73 0-3.313-11.616-.118-17.414-7.858-24.283-20.966l-18.21-29.25c9.895-3.084 20.85-11.82 20.967-26.49-.08-11.713-5.663-20.655-16.19-25.254l-4.038 7.283c5.42 4.33 8.203 11.223 8.09 20.178.203 14.437-8.294 22.177-24.282 22.076-3.592.1-9.377-.357-13.245-1.104v-45.807c4.322-.34 9.96-.492 12.142-.55 7.28.024 13.086 1.838 17.298 5.208l4.035-7.283z"/><path d="M-29.404 192.741c.052-4.577-.1-3.238 0-4.967-.1-3.582.627-8.675.553-12.14-12.07-2.91-24.58-5.818-41.392-6.07-33.275.252-56.4 25.14-56.293 57.395-.107 31.793 25.475 52.127 55.74 51.88 17.516.247 36.77-7.78 46.358-18.765v-12.142c-11.866 16.296-26.557 26.27-43.6 26.49-26.055-.222-45.96-23.216-45.81-52.43-.15-28.505 19.437-47.53 43.604-47.46 19.087-.07 28.105 5.103 38.078 18.213 1.525 2.697 2.963-.177 2.76-.002zm-442.054 126.38c10.267-.025 16.676.033 22.075 0 4.218.033 10.226.033 22.627.552 4.92-.06 2.62-5.234 0-4.968-10.315-.154-16.352-7.28-16.556-21.52l.55-106.515 65.675 133.003c.665 1.377 2.39 1.09 2.207 1.103h1.655c1.4-.016 1.955-2.037 2.21-2.21l61.256-147.35 1.657 125.276c.04 13.688-4.222 18.52-16.004 18.764-3.452.043-3.164 4.354 0 4.415 12.662-.522 16.618-.75 23.18-.554 6.57-.195 17.902.033 30.352.553 3.953-.062 5.39-5.235 0-5.52-13.58.57-17.64-10.352-17.66-29.25l-2.208-93.82c.25-1.624.25-3.005 0-4.415.25-17.213 3.124-22.273 19.868-25.386 2.516 1.1 3.378-3.21 0-3.312-7.52.39-14.592.62-21.523.552-5.5.066-11.027-.45-18.21-.552-2.016.1-2.568 2.124-2.76 2.207l-56.844 134.107-65.674-134.658c-.065.174-.336-1.842-2.76-1.656-9.022.56-12.424.62-14.35.552-6.52.066-11.312-.162-18.763-.552-3.554.1-4.416 5.275 0 5.52 15.992.275 18.58 6.366 18.765 23.178-.188.552.05 34.813 0 59.603-.432 25.816-.68 46.207-2.207 53.53-2.23 10.613-5.586 14.923-16.557 14.902-2.403-.266-3.553 4.907.002 4.415zm216.888-24.284v12.694c.228 7.987 4.863 12.456 11.59 12.696 4.323-.24 7.802-1.974 9.934-4.968 2.13-3.215 2.13-6.983 2.205-11.59v-7.727c-.077-3.19.17-4.265 2.758-4.416v-1.654c-1.677.314-3.083.397-4.415.548-.862-.15-2.23-.236-3.862-.548v1.652c3.455-.18 3.455 2.262 3.313 9.935v5.518c.145 7.38-3.625 11.31-9.383 11.035-4.963.275-8.356-3.077-8.278-8.828V296.49c-.078-3.907.21-5.146 3.312-4.967v-1.654c-2.106.314-3.8.397-4.966.548-1.566-.15-3.31-.235-5.52-.548v1.657c.31-.18.476-.18.552 0 2.2-.18 2.984.73 2.76 3.31zm52.428 0l19.866 24.836h1.656c-.064-14.834.185-23.07.553-24.836-.037-2.417.707-3.326 3.31-3.31v-1.656c-1.94.314-3.43.355-4.414.55-1.624-.194-3.073-.237-4.416-.55v1.655c1.674-.06 2.42.44 2.76 2.208.322.883.487 5.768.55 14.35-.062 1.68-.062 3.5 0 5.516l-19.314-23.728c-1.195.314-2.188.314-2.76.55-1.043-.237-2.16-.237-3.862-.55v1.655c3.398-.18 4.185.274 4.415 2.76-.23 12.955-.56 19.74-.552 19.867-.257 2.815-.96 3.768-3.31 3.862v1.104c1.853.12 3.302.08 4.412 0 .998.08 2.488.12 4.415 0v-1.104c-2.01-.054-2.756-.55-3.312-2.205-.105-.954-.313-5.84-.552-14.348.242-2.252.325-4.448.555-6.626zm43.045 24.283c2.177.12 3.874.08 4.968 0 1.266.08 3.046.12 5.52 0v-1.104c-.282.067-.445.067-.55 0-2.752.067-3-1.213-2.762-4.415v-17.104c-.24-3.907.048-5.146 3.313-4.968v-1.654c-2.267.314-4.005.397-5.52.548-1.218-.15-2.998-.236-4.967-.548v1.652c.065-.18.23-.18.553 0 1.955-.18 2.74.73 2.758 3.31V313.6c-.018 3.366-.803 4.482-3.31 4.415.023.067-.058.067 0 0v1.105zm41.392 1.106h1.103l11.04-24.837c.95-2.636 1.57-3.963 4.414-3.864v-1.655c-1.516.314-3.05.354-4.415.548-1.16-.193-2.647-.235-4.417-.548v1.657c1.727-.016 2.43.314 2.21 1.105.22.7.052 1.32 0 2.204l-8.28 19.868-8.28-20.42c-.275-.457-.398-.87-.55-1.102.15-1.26 1.187-1.794 3.31-1.657v-1.655c-2 .314-3.82.355-5.52.55-1.28-.194-3.103-.237-5.514-.55v1.655c2.786.024 3.78 1.27 4.965 3.865l9.935 24.835zm34.768-1.106c3.415.08 6.48.04 9.382 0 2.48.04 6.41.08 11.59 0 .24-2.113.738-4.514 1.103-7.175h-1.103c-1.166 5.104-3.274 5.6-9.383 5.52-4.073.08-4.488-.29-4.414-3.866v-8.83c1.996-.14 3.195-.14 3.308 0 3.776-.14 5.104.193 4.97 2.76h1.102c.23-1.493.19-2.815 0-3.862.19-.938.23-2.183 0-3.867h-1.103c.173.274.216.44 0 .553.216 2.455-1.524 2.87-5.52 2.76-.97.11-1.84.067-2.757 0v-11.037h2.207c6.575-.195 9.102.218 9.382 4.968h1.1a66.117 66.117 0 0 0-.547-6.073c.24-.333.24-.622 0-1.1-4.85.353-8.576.396-11.04.547-2.46-.15-5.193-.193-8.28-.548v1.66c.354-.18.52-.18.552 0 2.245-.18 3.03.73 2.76 3.31v18.762c.27 3.406-.474 4.482-3.31 4.415.228.067.186.067 0 0v1.106zm55.893-28.254c-1.384-.61-3.097-.96-5.12-.995-1.77.108-3.966.397-6.622.55-.777-.152-2.27-.194-4.415-.55v1.655c.325-.18.488-.18.552 0 2.214-.18 3 .73 2.755 3.31V313.6c.243 3.406-.5 4.482-3.308 4.415.2.068.156.068 0 0v1.107c2.27.12 4.01.08 5.515 0 1.058.08 2.798.12 4.967 0v-1.104c-.1.067-.268.067-.55 0-2.57.067-2.863-1.213-2.758-4.415v-7.723c1.8.124 2.92.16 3.308.55.48.027.935.897 1.655 2.208l3.864 6.072c2.078 3.67 3.735 4.95 7.176 4.967.945-.018 1.69-.06 2.758 0v-1.104c-4.047-.03-5.205-2.057-7.17-5.516l-4.415-8.28c4.228-.72 6.172-3.035 6.068-7.176.07-3.073-1.392-5.466-4.262-6.733l-1.59 2.063c1.354 1.147 2.057 2.942 1.99 5.22.12 4.122-2.197 6.235-6.623 6.07-.916.165-1.868.042-2.758 0v-12.693c1.013-.06 1.927-.1 2.758 0 1.947-.045 3.512.456 4.633 1.403l1.59-2.063zm24.129 28.254c2.398.494 4.8.867 7.175 1.105 6.48-.24 10.082-3.677 9.932-9.383.148-2.818-1.177-4.81-3.862-6.627-2.405-1.323-5.26-2.275-7.725-3.863-1.59-1.02-2.46-2.634-2.21-4.414-.25-2.57 1.985-4.76 4.97-4.968 4.26.207 6.575 2.358 6.622 6.622h1.655c-.252-1.488-.252-2.32 0-2.757-.252-1.132-.252-2.58 0-4.417-2.488-.15-4.804-.898-7.728-1.1-5.272.203-8.955 3.805-8.83 8.276-.125 4.14 2.814 5.92 7.728 8.28 4.19 1.777 6.675 3.103 6.622 6.623.053 3.434-2.472 5.918-6.07 6.07-3.812-.15-6.71-2.677-7.174-6.622h-1.104a384.42 384.42 0 0 0 0 2.76c-.004.4-.004 1.805 0 4.414zm34.769 0c2.407.12 4.104.08 5.518 0 .945.08 2.726.12 4.967 0v-1.104c-.05.067-.214.067-.554 0-2.515.067-2.764-1.213-2.757-4.415v-17.104c-.008-3.907.28-5.146 3.31-4.968v-1.654c-2.038.314-3.775.397-4.968.548-1.536-.15-3.314-.236-5.518-.548v1.652c.3-.18.463-.18.553 0 2.187-.18 2.973.73 2.757 3.31V313.6c.216 3.366-.57 4.482-2.757 4.415-.297.067-.38.067-.553 0v1.105zm37.526-27.594V313.6c-.112 3.575-.815 4.444-3.863 4.415v1.104c2.464.12 4.287.08 5.518 0 1.087.08 2.827.12 5.518 0v-1.104c-3.604.067-3.772-1.047-3.864-4.415v-22.074h2.76c5.154.193 6.976.688 7.173 6.07h1.104c-.1-1.695-.1-2.73 0-3.308-.1-.542-.1-1.95 0-4.415h-25.38c.076 2.012.076 3.007 0 3.31.076 1.433.076 2.84 0 4.413h1.1c.342-4.802 2.08-5.877 7.175-6.07h2.757zm38.633 27.594c1.953.12 3.69.08 4.967 0 1.292.08 2.99.12 4.966 0v-1.104c.094.067-.074.067 0 0-2.93.067-3.18-1.213-3.31-4.415v-6.07l7.726-13.796c.89-1.645 1.472-2.388 3.863-2.76v-1.1c-1.69.313-2.89.353-3.863.547-1.138-.194-2.586-.237-4.416-.55v1.102c2.038.372 2.7.576 2.757 1.657-.056.122-.144.535-.55 1.102l-6.072 12.142-6.62-12.142c-.35-.32-.478-.732-.554-1.103.076-.91.864-1.41 2.21-1.658v-1.1c-1.842.313-3.58.353-4.968.547-1.345-.194-3-.237-4.965-.55v1.102c1.8.29 3 .994 3.862 2.76l8.277 14.9v4.964c-.114 3.406-.814 4.482-3.308 4.415-.116.068-.157.068 0 0v1.107z"/><path d="M-24.437 278.833c12.112-.205 21.852-.355 32.56-.55 9.02.194 24.474.513 44.147.55.188-.72 1.594 1.11 2.207-2.21.328-7.453 1.86-14.073 2.208-22.625.628-1.646-2.82-4.52-2.756 0-3.706 18.46-15.388 20.28-36.977 20.42-15.75-.142-17.265-1.503-17.11-14.348V225.3c7.436-.093 14.826-.093 16.005 0 13.085-.093 17.323.033 18.212 8.278.548 3.54 4.285 2.102 4.415 0-.283-5.68-.13-8.068 0-12.14-.13-3.21-.283-5.285 0-11.038-.705-4.04-4.44-2.314-4.415-.553.368 8.676-6.34 10.886-21.52 11.04-3.026-.154-9.203-.306-12.695-.554v-43.047h12.142c23.287-.075 32.896 1.77 33.11 17.11.145 2.48 3.594 1.617 3.863 0 .02-8.15-.555-10.524-.55-17.11-.005-1.152.067-4.44 0-5.52-18.598.626-35.363.776-44.15.554-9.272.222-17.166.073-28.146-.553-2.153-.186-3.304 4.7 0 4.967 7.795-.197 10.678 3.097 10.486 11.59v70.64c.19 11.623-.438 16.38-10.486 16.557-3.016-.173-2.442 3.564-.55 3.314z"/><path d="M112.65 173.57c-4.342-1.47-9.395-2.284-15.123-2.353-7.3.264-15.34 1.326-24.836 1.104-3.103.222-6.785.073-14.344-.553-1.604.39-2.753 4.7.548 4.967 7.507-.193 10.393 1.718 10.487 10.486v74.503c-.094 11.356-.565 12.186-9.932 13.247-3.348.528-3.4 3.964.553 3.865 7.798-.054 10.955-.207 15.453 0 4.91-.207 9.752-.342 17.66 0 2.436-.04 4.167-3.56 0-3.865-10.5-.487-10.926-4.742-11.038-16.56v-29.8c7.092.34 14.656.49 16.004 1.105 1.843.906 3.51 5.358 6.626 10.486l13.797 22.623c7.52 12.77 16.43 17.475 29.8 17.665 2.72-.19 1.55-.344 4.964-.552 2.64-.095 1.78-3.73 0-3.313-11.73-.12-17.528-7.86-24.834-20.967l-17.66-29.25c9.78-3.084 20.74-11.82 20.97-26.49-.175-12.722-6.774-22.175-19.094-26.346l-3.117 7.026c6.648 4.17 10.127 11.576 10.07 21.526.088 14.435-8.41 22.175-24.28 22.074-3.706.1-9.493-.357-13.25-1.104v-45.807c4.21-.34 9.843-.492 12.143-.55 6.195.02 11.326 1.358 15.314 3.86l3.12-7.026z"/></g></svg>